<svg id="visual" viewBox="0 0 900 200" width="900" height="200" xmlns="http://www.w3.org/2000/svg" xmlns:xlink="http://www.w3.org/1999/xlink" version="1.1"><rect x="0" y="0" width="900" height="200" fill="#ffffff"></rect><path d="M0 77L21.5 79.2C43 81.3 86 85.7 128.8 87.8C171.7 90 214.3 90 257.2 83.5C300 77 343 64 385.8 58.8C428.7 53.7 471.3 56.3 514.2 63.8C557 71.3 600 83.7 642.8 88.5C685.7 93.3 728.3 90.7 771.2 80.2C814 69.7 857 51.3 878.5 42.2L900 33L900 201L878.5 201C857 201 814 201 771.2 201C728.3 201 685.7 201 642.8 201C600 201 557 201 514.2 201C471.3 201 428.7 201 385.8 201C343 201 300 201 257.2 201C214.3 201 171.7 201 128.8 201C86 201 43 201 21.5 201L0 201Z" fill="#da70d6"></path><path d="M0 96L21.5 99.5C43 103 86 110 128.8 108.8C171.7 107.7 214.3 98.3 257.2 90.3C300 82.3 343 75.7 385.8 74.5C428.7 73.3 471.3 77.7 514.2 79.3C557 81 600 80 642.8 78.2C685.7 76.3 728.3 73.7 771.2 72.3C814 71 857 71 878.5 71L900 71L900 201L878.5 201C857 201 814 201 771.2 201C728.3 201 685.7 201 642.8 201C600 201 557 201 514.2 201C471.3 201 428.7 201 385.8 201C343 201 300 201 257.2 201C214.3 201 171.7 201 128.8 201C86 201 43 201 21.5 201L0 201Z" fill="#c65dc2"></path><path d="M0 103L21.5 103.3C43 103.7 86 104.3 128.8 109.7C171.7 115 214.3 125 257.2 127.3C300 129.7 343 124.3 385.8 120.8C428.7 117.3 471.3 115.7 514.2 116.2C557 116.7 600 119.3 642.8 123.5C685.7 127.7 728.3 133.3 771.2 130.8C814 128.3 857 117.7 878.5 112.3L900 107L900 201L878.5 201C857 201 814 201 771.2 201C728.3 201 685.7 201 642.8 201C600 201 557 201 514.2 201C471.3 201 428.7 201 385.8 201C343 201 300 201 257.2 201C214.3 201 171.7 201 128.8 201C86 201 43 201 21.5 201L0 201Z" fill="#b34aaf"></path><path d="M0 152L21.5 150.7C43 149.3 86 146.7 128.8 142.2C171.7 137.7 214.3 131.3 257.2 131C300 130.7 343 136.3 385.8 141C428.7 145.7 471.3 149.3 514.2 148.8C557 148.3 600 143.7 642.8 142.8C685.7 142 728.3 145 771.2 148.2C814 151.3 857 154.7 878.5 156.3L900 158L900 201L878.5 201C857 201 814 201 771.2 201C728.3 201 685.7 201 642.8 201C600 201 557 201 514.2 201C471.3 201 428.7 201 385.8 201C343 201 300 201 257.2 201C214.3 201 171.7 201 128.8 201C86 201 43 201 21.5 201L0 201Z" fill="#a0369c"></path><path d="M0 151L21.5 151.3C43 151.7 86 152.3 128.8 157C171.7 161.7 214.3 170.3 257.2 170.7C300 171 343 163 385.8 161.5C428.7 160 471.3 165 514.2 166C557 167 600 164 642.8 165.8C685.7 167.7 728.3 174.3 771.2 173.2C814 172 857 163 878.5 158.5L900 154L900 201L878.5 201C857 201 814 201 771.2 201C728.3 201 685.7 201 642.8 201C600 201 557 201 514.2 201C471.3 201 428.7 201 385.8 201C343 201 300 201 257.2 201C214.3 201 171.7 201 128.8 201C86 201 43 201 21.5 201L0 201Z" fill="#8d2189"></path></svg>