<svg id="visual" viewBox="0 0 900 200" width="900" height="200" xmlns="http://www.w3.org/2000/svg" xmlns:xlink="http://www.w3.org/1999/xlink" version="1.1"><rect x="0" y="0" width="900" height="200" fill="#ffffff"></rect><path d="M0 144L18.8 138.5C37.7 133 75.3 122 112.8 121.8C150.3 121.7 187.7 132.3 225.2 140.5C262.7 148.7 300.3 154.3 337.8 151C375.3 147.7 412.7 135.3 450.2 136.8C487.7 138.3 525.3 153.7 562.8 152.8C600.3 152 637.7 135 675.2 129C712.7 123 750.3 128 787.8 134C825.3 140 862.7 147 881.3 150.5L900 154L900 0L881.3 0C862.7 0 825.3 0 787.8 0C750.3 0 712.7 0 675.2 0C637.7 0 600.3 0 562.8 0C525.3 0 487.7 0 450.2 0C412.7 0 375.3 0 337.8 0C300.3 0 262.7 0 225.2 0C187.7 0 150.3 0 112.8 0C75.3 0 37.7 0 18.8 0L0 0Z" fill="#da70d6"></path><path d="M0 117L18.8 118.3C37.7 119.7 75.3 122.3 112.8 125C150.3 127.7 187.7 130.3 225.2 129C262.7 127.7 300.3 122.3 337.8 120.7C375.3 119 412.7 121 450.2 121C487.7 121 525.3 119 562.8 114C600.3 109 637.7 101 675.2 103.3C712.7 105.7 750.3 118.3 787.8 118.3C825.3 118.3 862.7 105.7 881.3 99.3L900 93L900 0L881.3 0C862.7 0 825.3 0 787.8 0C750.3 0 712.7 0 675.2 0C637.7 0 600.3 0 562.8 0C525.3 0 487.7 0 450.2 0C412.7 0 375.3 0 337.8 0C300.3 0 262.7 0 225.2 0C187.7 0 150.3 0 112.8 0C75.3 0 37.7 0 18.8 0L0 0Z" fill="#c65dc2"></path><path d="M0 80L18.8 82.5C37.7 85 75.3 90 112.8 88.5C150.3 87 187.7 79 225.2 74.8C262.7 70.7 300.3 70.3 337.8 70.7C375.3 71 412.7 72 450.2 71C487.7 70 525.3 67 562.8 70.8C600.3 74.7 637.7 85.3 675.2 88.2C712.7 91 750.3 86 787.8 87.2C825.3 88.3 862.7 95.7 881.3 99.3L900 103L900 0L881.3 0C862.7 0 825.3 0 787.8 0C750.3 0 712.7 0 675.2 0C637.7 0 600.3 0 562.8 0C525.3 0 487.7 0 450.2 0C412.7 0 375.3 0 337.8 0C300.3 0 262.7 0 225.2 0C187.7 0 150.3 0 112.8 0C75.3 0 37.7 0 18.8 0L0 0Z" fill="#b34aaf"></path><path d="M0 49L18.8 49.2C37.7 49.3 75.3 49.7 112.8 50.5C150.3 51.3 187.7 52.7 225.2 54C262.7 55.3 300.3 56.7 337.8 59C375.3 61.3 412.7 64.7 450.2 62.5C487.7 60.3 525.3 52.7 562.8 54.2C600.3 55.7 637.7 66.3 675.2 72C712.7 77.7 750.3 78.3 787.8 77C825.3 75.7 862.7 72.3 881.3 70.7L900 69L900 0L881.3 0C862.7 0 825.3 0 787.8 0C750.3 0 712.7 0 675.2 0C637.7 0 600.3 0 562.8 0C525.3 0 487.7 0 450.2 0C412.7 0 375.3 0 337.8 0C300.3 0 262.7 0 225.2 0C187.7 0 150.3 0 112.8 0C75.3 0 37.7 0 18.8 0L0 0Z" fill="#a0369c"></path><path d="M0 19L18.8 20.8C37.7 22.7 75.3 26.3 112.8 30.5C150.3 34.7 187.7 39.3 225.2 40.5C262.7 41.7 300.3 39.3 337.8 36C375.3 32.7 412.7 28.3 450.2 27C487.7 25.7 525.3 27.3 562.8 30C600.3 32.7 637.7 36.3 675.2 36.7C712.7 37 750.3 34 787.8 34.8C825.3 35.7 862.7 40.3 881.3 42.7L900 45L900 0L881.3 0C862.7 0 825.3 0 787.8 0C750.3 0 712.7 0 675.2 0C637.7 0 600.3 0 562.8 0C525.3 0 487.7 0 450.2 0C412.7 0 375.3 0 337.8 0C300.3 0 262.7 0 225.2 0C187.7 0 150.3 0 112.8 0C75.3 0 37.7 0 18.8 0L0 0Z" fill="#8d2189"></path></svg>